<svg width="694" height="366" viewBox="0 0 694 366" fill="none" xmlns="http://www.w3.org/2000/svg">
<path d="M85.52 193.24V203H51.08V144.96H63.08V193.24H85.52ZM115.231 193.4C117.177 193.4 118.924 193.08 120.471 192.44C122.017 191.773 123.324 190.84 124.391 189.64C125.457 188.44 126.271 186.987 126.831 185.28C127.391 183.573 127.671 181.653 127.671 179.52V144.96H139.671V179.52C139.671 183.04 139.097 186.28 137.951 189.24C136.831 192.173 135.217 194.707 133.111 196.84C131.004 198.973 128.444 200.64 125.431 201.84C122.417 203.04 119.017 203.64 115.231 203.64C111.444 203.64 108.031 203.04 104.991 201.84C101.977 200.64 99.4173 198.973 97.3106 196.84C95.204 194.707 93.5773 192.173 92.4306 189.24C91.3106 186.28 90.7506 183.04 90.7506 179.52V144.96H102.751V179.52C102.751 181.653 103.031 183.573 103.591 185.28C104.151 186.987 104.964 188.44 106.031 189.64C107.097 190.84 108.404 191.773 109.951 192.44C111.497 193.08 113.257 193.4 115.231 193.4ZM163.08 168.92H165.44C167.413 168.92 168.84 168.307 169.72 167.08L184.4 147.44C185.093 146.507 185.853 145.867 186.68 145.52C187.507 145.147 188.52 144.96 189.72 144.96H200.12L181.64 168.76C180.44 170.307 179.2 171.413 177.92 172.08C178.853 172.453 179.693 172.947 180.44 173.56C181.187 174.147 181.907 174.933 182.6 175.92L201.56 203H190.88C190.187 203 189.587 202.947 189.08 202.84C188.6 202.733 188.173 202.587 187.8 202.4C187.427 202.213 187.107 201.987 186.84 201.72C186.573 201.427 186.32 201.093 186.08 200.72L171.16 179.84C170.653 179.12 170.053 178.613 169.36 178.32C168.667 178 167.693 177.84 166.44 177.84H163.08V203H151.08V144.96H163.08V168.92ZM238.145 156.08C237.772 156.693 237.385 157.147 236.985 157.44C236.612 157.707 236.118 157.84 235.505 157.84C234.918 157.84 234.278 157.64 233.585 157.24C232.918 156.813 232.132 156.36 231.225 155.88C230.318 155.4 229.278 154.96 228.105 154.56C226.932 154.133 225.558 153.92 223.985 153.92C221.212 153.92 219.132 154.547 217.745 155.8C216.358 157.027 215.665 158.64 215.665 160.64C215.665 161.92 216.038 162.987 216.785 163.84C217.558 164.667 218.558 165.387 219.785 166C221.038 166.613 222.452 167.16 224.025 167.64C225.598 168.12 227.212 168.653 228.865 169.24C230.518 169.8 232.132 170.467 233.705 171.24C235.278 172.013 236.678 172.987 237.905 174.16C239.158 175.333 240.158 176.773 240.905 178.48C241.678 180.16 242.065 182.213 242.065 184.64C242.065 187.28 241.598 189.76 240.665 192.08C239.758 194.373 238.438 196.387 236.705 198.12C234.972 199.827 232.825 201.173 230.265 202.16C227.732 203.147 224.852 203.64 221.625 203.64C219.785 203.64 217.945 203.453 216.105 203.08C214.292 202.707 212.532 202.187 210.825 201.52C209.145 200.853 207.558 200.053 206.065 199.12C204.572 198.187 203.265 197.147 202.145 196L205.665 190.32C205.958 189.893 206.345 189.547 206.825 189.28C207.305 188.987 207.812 188.84 208.345 188.84C209.065 188.84 209.825 189.107 210.625 189.64C211.425 190.173 212.345 190.76 213.385 191.4C214.425 192.04 215.625 192.627 216.985 193.16C218.372 193.693 220.025 193.96 221.945 193.96C224.745 193.96 226.905 193.32 228.425 192.04C229.972 190.76 230.745 188.853 230.745 186.32C230.745 184.853 230.358 183.667 229.585 182.76C228.838 181.853 227.852 181.093 226.625 180.48C225.398 179.867 223.998 179.347 222.425 178.92C220.852 178.467 219.238 177.973 217.585 177.44C215.932 176.907 214.318 176.267 212.745 175.52C211.172 174.773 209.772 173.787 208.545 172.56C207.318 171.333 206.318 169.813 205.545 168C204.798 166.187 204.425 163.933 204.425 161.24C204.425 159.08 204.852 156.987 205.705 154.96C206.558 152.933 207.812 151.133 209.465 149.56C211.118 147.987 213.145 146.72 215.545 145.76C217.972 144.8 220.745 144.32 223.865 144.32C227.358 144.32 230.585 144.867 233.545 145.96C236.532 147.027 239.052 148.52 241.105 150.44L238.145 156.08ZM306.848 173.96C306.848 178.2 306.128 182.133 304.688 185.76C303.274 189.387 301.261 192.52 298.648 195.16C296.061 197.8 292.941 199.88 289.288 201.4C285.634 202.893 281.581 203.64 277.128 203.64C272.674 203.64 268.621 202.893 264.968 201.4C261.314 199.88 258.181 197.8 255.568 195.16C252.954 192.52 250.928 189.387 249.488 185.76C248.074 182.133 247.368 178.2 247.368 173.96C247.368 169.72 248.074 165.8 249.488 162.2C250.928 158.573 252.954 155.44 255.568 152.8C258.181 150.16 261.314 148.093 264.968 146.6C268.621 145.08 272.674 144.32 277.128 144.32C281.581 144.32 285.634 145.08 289.288 146.6C292.941 148.093 296.061 150.173 298.648 152.84C301.261 155.48 303.274 158.613 304.688 162.24C306.128 165.84 306.848 169.747 306.848 173.96ZM294.568 173.96C294.568 170.92 294.168 168.2 293.368 165.8C292.568 163.373 291.408 161.32 289.887 159.64C288.394 157.933 286.568 156.64 284.408 155.76C282.274 154.853 279.848 154.4 277.128 154.4C274.408 154.4 271.968 154.853 269.808 155.76C267.648 156.64 265.808 157.933 264.288 159.64C262.794 161.32 261.648 163.373 260.848 165.8C260.048 168.2 259.648 170.92 259.648 173.96C259.648 177.027 260.048 179.773 260.848 182.2C261.648 184.6 262.794 186.64 264.288 188.32C265.808 190 267.648 191.293 269.808 192.2C271.968 193.08 274.408 193.52 277.128 193.52C279.848 193.52 282.274 193.08 284.408 192.2C286.568 191.293 288.394 190 289.887 188.32C291.408 186.64 292.568 184.6 293.368 182.2C294.168 179.773 294.568 177.027 294.568 173.96ZM412.363 144.96L394.363 203H383.523L371.643 165.04C371.456 164.507 371.27 163.92 371.083 163.28C370.896 162.64 370.723 161.96 370.563 161.24C370.403 161.96 370.23 162.64 370.043 163.28C369.856 163.92 369.67 164.507 369.483 165.04L357.483 203H346.603L328.643 144.96H338.723C339.763 144.96 340.63 145.2 341.323 145.68C342.043 146.16 342.51 146.8 342.723 147.6L351.723 180.32C351.936 181.227 352.15 182.213 352.363 183.28C352.603 184.32 352.83 185.427 353.043 186.6C353.283 185.4 353.536 184.28 353.803 183.24C354.07 182.2 354.363 181.227 354.683 180.32L365.163 147.6C365.376 146.933 365.83 146.333 366.523 145.8C367.243 145.24 368.11 144.96 369.123 144.96H372.643C373.683 144.96 374.523 145.213 375.163 145.72C375.83 146.2 376.323 146.827 376.643 147.6L387.083 180.32C387.403 181.173 387.696 182.107 387.963 183.12C388.23 184.107 388.483 185.16 388.723 186.28C388.936 185.16 389.136 184.107 389.323 183.12C389.536 182.107 389.75 181.173 389.963 180.32L398.963 147.6C399.15 146.907 399.603 146.293 400.323 145.76C401.043 145.227 401.91 144.96 402.923 144.96H412.363ZM473.644 173.96C473.644 178.2 472.924 182.133 471.484 185.76C470.071 189.387 468.058 192.52 465.444 195.16C462.858 197.8 459.738 199.88 456.084 201.4C452.431 202.893 448.378 203.64 443.924 203.64C439.471 203.64 435.418 202.893 431.764 201.4C428.111 199.88 424.978 197.8 422.364 195.16C419.751 192.52 417.724 189.387 416.284 185.76C414.871 182.133 414.164 178.2 414.164 173.96C414.164 169.72 414.871 165.8 416.284 162.2C417.724 158.573 419.751 155.44 422.364 152.8C424.978 150.16 428.111 148.093 431.764 146.6C435.418 145.08 439.471 144.32 443.924 144.32C448.378 144.32 452.431 145.08 456.084 146.6C459.738 148.093 462.858 150.173 465.444 152.84C468.058 155.48 470.071 158.613 471.484 162.24C472.924 165.84 473.644 169.747 473.644 173.96ZM461.364 173.96C461.364 170.92 460.964 168.2 460.164 165.8C459.364 163.373 458.204 161.32 456.684 159.64C455.191 157.933 453.364 156.64 451.204 155.76C449.071 154.853 446.644 154.4 443.924 154.4C441.204 154.4 438.764 154.853 436.604 155.76C434.444 156.64 432.604 157.933 431.084 159.64C429.591 161.32 428.444 163.373 427.644 165.8C426.844 168.2 426.444 170.92 426.444 173.96C426.444 177.027 426.844 179.773 427.644 182.2C428.444 184.6 429.591 186.64 431.084 188.32C432.604 190 434.444 191.293 436.604 192.2C438.764 193.08 441.204 193.52 443.924 193.52C446.644 193.52 449.071 193.08 451.204 192.2C453.364 191.293 455.191 190 456.684 188.32C458.204 186.64 459.364 184.6 460.164 182.2C460.964 179.773 461.364 177.027 461.364 173.96ZM500.568 172.44C502.515 172.44 504.195 172.2 505.608 171.72C507.021 171.213 508.181 170.533 509.088 169.68C509.995 168.8 510.661 167.773 511.088 166.6C511.515 165.427 511.728 164.147 511.728 162.76C511.728 160.013 510.808 157.88 508.968 156.36C507.155 154.84 504.381 154.08 500.648 154.08H494.408V172.44H500.568ZM528.688 203H517.848C515.821 203 514.355 202.227 513.448 200.68L502.408 182.88C501.955 182.187 501.448 181.68 500.888 181.36C500.355 181.04 499.555 180.88 498.488 180.88H494.408V203H482.408V144.96H500.648C504.701 144.96 508.168 145.387 511.048 146.24C513.928 147.067 516.288 148.227 518.128 149.72C519.968 151.213 521.315 153 522.168 155.08C523.021 157.133 523.448 159.4 523.448 161.88C523.448 163.8 523.168 165.627 522.608 167.36C522.075 169.067 521.288 170.627 520.248 172.04C519.208 173.453 517.928 174.707 516.408 175.8C514.888 176.893 513.155 177.773 511.208 178.44C511.981 178.867 512.701 179.387 513.368 180C514.035 180.587 514.635 181.293 515.168 182.12L528.688 203ZM568.801 193.24V203H534.361V144.96H546.361V193.24H568.801ZM628.198 173.96C628.198 178.2 627.478 182.107 626.038 185.68C624.625 189.227 622.611 192.28 619.998 194.84C617.411 197.4 614.291 199.4 610.638 200.84C606.985 202.28 602.931 203 598.478 203H576.158V144.96H598.478C602.931 144.96 606.985 145.68 610.638 147.12C614.291 148.56 617.411 150.573 619.998 153.16C622.611 155.72 624.625 158.773 626.038 162.32C627.478 165.867 628.198 169.747 628.198 173.96ZM615.878 173.96C615.878 170.92 615.478 168.187 614.678 165.76C613.878 163.333 612.731 161.28 611.238 159.6C609.745 157.92 607.918 156.627 605.758 155.72C603.625 154.813 601.198 154.36 598.478 154.36H588.238V193.6H598.478C601.198 193.6 603.625 193.16 605.758 192.28C607.918 191.373 609.745 190.08 611.238 188.4C612.731 186.693 613.878 184.627 614.678 182.2C615.478 179.773 615.878 177.027 615.878 173.96Z" fill="url(#paint0_angular_3_24)"/>
<defs>
<radialGradient id="paint0_angular_3_24" cx="0" cy="0" r="1" gradientUnits="userSpaceOnUse" gradientTransform="translate(613 151) rotate(175.047) scale(602.249 2468.51)">
<stop stop-color="#00D1FF"/>
<stop offset="1" stop-color="white"/>
</radialGradient>
</defs>
</svg>
