<svg width="1204" height="226" viewBox="0 0 1204 226" fill="none" xmlns="http://www.w3.org/2000/svg">
<path d="M138.91 149.92V167H78.64V65.43H99.64V149.92H138.91ZM190.904 150.2C194.31 150.2 197.367 149.64 200.074 148.52C202.78 147.353 205.067 145.72 206.934 143.62C208.8 141.52 210.224 138.977 211.204 135.99C212.184 133.003 212.674 129.643 212.674 125.91V65.43H233.674V125.91C233.674 132.07 232.67 137.74 230.664 142.92C228.704 148.053 225.88 152.487 222.194 156.22C218.507 159.953 214.027 162.87 208.754 164.97C203.48 167.07 197.53 168.12 190.904 168.12C184.277 168.12 178.304 167.07 172.984 164.97C167.71 162.87 163.23 159.953 159.544 156.22C155.857 152.487 153.01 148.053 151.004 142.92C149.044 137.74 148.064 132.07 148.064 125.91V65.43H169.064V125.91C169.064 129.643 169.554 133.003 170.534 135.99C171.514 138.977 172.937 141.52 174.804 143.62C176.67 145.72 178.957 147.353 181.664 148.52C184.37 149.64 187.45 150.2 190.904 150.2ZM274.64 107.36H278.77C282.223 107.36 284.72 106.287 286.26 104.14L311.95 69.77C313.163 68.1367 314.493 67.0167 315.94 66.41C317.387 65.7567 319.16 65.43 321.26 65.43H339.46L307.12 107.08C305.02 109.787 302.85 111.723 300.61 112.89C302.243 113.543 303.713 114.407 305.02 115.48C306.327 116.507 307.587 117.883 308.8 119.61L341.98 167H323.29C322.077 167 321.027 166.907 320.14 166.72C319.3 166.533 318.553 166.277 317.9 165.95C317.247 165.623 316.687 165.227 316.22 164.76C315.753 164.247 315.31 163.663 314.89 163.01L288.78 126.47C287.893 125.21 286.843 124.323 285.63 123.81C284.417 123.25 282.713 122.97 280.52 122.97H274.64V167H253.64V65.43H274.64V107.36ZM406.004 84.89C405.35 85.9633 404.674 86.7567 403.974 87.27C403.32 87.7367 402.457 87.97 401.384 87.97C400.357 87.97 399.237 87.62 398.024 86.92C396.857 86.1733 395.48 85.38 393.894 84.54C392.307 83.7 390.487 82.93 388.434 82.23C386.38 81.4833 383.977 81.11 381.224 81.11C376.37 81.11 372.73 82.2067 370.304 84.4C367.877 86.5467 366.664 89.37 366.664 92.87C366.664 95.11 367.317 96.9767 368.624 98.47C369.977 99.9167 371.727 101.177 373.874 102.25C376.067 103.323 378.54 104.28 381.294 105.12C384.047 105.96 386.87 106.893 389.764 107.92C392.657 108.9 395.48 110.067 398.234 111.42C400.987 112.773 403.437 114.477 405.584 116.53C407.777 118.583 409.527 121.103 410.834 124.09C412.187 127.03 412.864 130.623 412.864 134.87C412.864 139.49 412.047 143.83 410.414 147.89C408.827 151.903 406.517 155.427 403.484 158.46C400.45 161.447 396.694 163.803 392.214 165.53C387.78 167.257 382.74 168.12 377.094 168.12C373.874 168.12 370.654 167.793 367.434 167.14C364.26 166.487 361.18 165.577 358.194 164.41C355.254 163.243 352.477 161.843 349.864 160.21C347.25 158.577 344.964 156.757 343.004 154.75L349.164 144.81C349.677 144.063 350.354 143.457 351.194 142.99C352.034 142.477 352.92 142.22 353.854 142.22C355.114 142.22 356.444 142.687 357.844 143.62C359.244 144.553 360.854 145.58 362.674 146.7C364.494 147.82 366.594 148.847 368.974 149.78C371.4 150.713 374.294 151.18 377.654 151.18C382.554 151.18 386.334 150.06 388.994 147.82C391.7 145.58 393.054 142.243 393.054 137.81C393.054 135.243 392.377 133.167 391.024 131.58C389.717 129.993 387.99 128.663 385.844 127.59C383.697 126.517 381.247 125.607 378.494 124.86C375.74 124.067 372.917 123.203 370.024 122.27C367.13 121.337 364.307 120.217 361.554 118.91C358.8 117.603 356.35 115.877 354.204 113.73C352.057 111.583 350.307 108.923 348.954 105.75C347.647 102.577 346.994 98.6333 346.994 93.92C346.994 90.14 347.74 86.4767 349.234 82.93C350.727 79.3833 352.92 76.2333 355.814 73.48C358.707 70.7267 362.254 68.51 366.454 66.83C370.7 65.15 375.554 64.31 381.014 64.31C387.127 64.31 392.774 65.2667 397.954 67.18C403.18 69.0467 407.59 71.66 411.184 75.02L406.004 84.89ZM526.233 116.18C526.233 123.6 524.973 130.483 522.453 136.83C519.98 143.177 516.456 148.66 511.883 153.28C507.356 157.9 501.896 161.54 495.503 164.2C489.11 166.813 482.016 168.12 474.223 168.12C466.43 168.12 459.336 166.813 452.943 164.2C446.55 161.54 441.066 157.9 436.493 153.28C431.92 148.66 428.373 143.177 425.853 136.83C423.38 130.483 422.143 123.6 422.143 116.18C422.143 108.76 423.38 101.9 425.853 95.6C428.373 89.2533 431.92 83.77 436.493 79.15C441.066 74.53 446.55 70.9133 452.943 68.3C459.336 65.64 466.43 64.31 474.223 64.31C482.016 64.31 489.11 65.64 495.503 68.3C501.896 70.9133 507.356 74.5533 511.883 79.22C516.456 83.84 519.98 89.3233 522.453 95.67C524.973 101.97 526.233 108.807 526.233 116.18ZM504.743 116.18C504.743 110.86 504.043 106.1 502.643 101.9C501.243 97.6533 499.213 94.06 496.553 91.12C493.94 88.1333 490.743 85.87 486.963 84.33C483.23 82.7433 478.983 81.95 474.223 81.95C469.463 81.95 465.193 82.7433 461.413 84.33C457.633 85.87 454.413 88.1333 451.753 91.12C449.14 94.06 447.133 97.6533 445.733 101.9C444.333 106.1 443.633 110.86 443.633 116.18C443.633 121.547 444.333 126.353 445.733 130.6C447.133 134.8 449.14 138.37 451.753 141.31C454.413 144.25 457.633 146.513 461.413 148.1C465.193 149.64 469.463 150.41 474.223 150.41C478.983 150.41 483.23 149.64 486.963 148.1C490.743 146.513 493.94 144.25 496.553 141.31C499.213 138.37 501.243 134.8 502.643 130.6C504.043 126.353 504.743 121.547 504.743 116.18ZM710.885 65.43L679.385 167H660.415L639.625 100.57C639.299 99.6367 638.972 98.61 638.645 97.49C638.319 96.37 638.015 95.18 637.735 93.92C637.455 95.18 637.152 96.37 636.825 97.49C636.499 98.61 636.172 99.6367 635.845 100.57L614.845 167H595.805L564.375 65.43H582.015C583.835 65.43 585.352 65.85 586.565 66.69C587.825 67.53 588.642 68.65 589.015 70.05L604.765 127.31C605.139 128.897 605.512 130.623 605.885 132.49C606.305 134.31 606.702 136.247 607.075 138.3C607.495 136.2 607.939 134.24 608.405 132.42C608.872 130.6 609.385 128.897 609.945 127.31L628.285 70.05C628.659 68.8833 629.452 67.8333 630.665 66.9C631.925 65.92 633.442 65.43 635.215 65.43H641.375C643.195 65.43 644.665 65.8733 645.785 66.76C646.952 67.6 647.815 68.6967 648.375 70.05L666.645 127.31C667.205 128.803 667.719 130.437 668.185 132.21C668.652 133.937 669.095 135.78 669.515 137.74C669.889 135.78 670.239 133.937 670.565 132.21C670.939 130.437 671.312 128.803 671.685 127.31L687.435 70.05C687.762 68.8367 688.555 67.7633 689.815 66.83C691.075 65.8967 692.592 65.43 694.365 65.43H710.885ZM818.128 116.18C818.128 123.6 816.868 130.483 814.348 136.83C811.874 143.177 808.351 148.66 803.778 153.28C799.251 157.9 793.791 161.54 787.398 164.2C781.004 166.813 773.911 168.12 766.118 168.12C758.324 168.12 751.231 166.813 744.838 164.2C738.444 161.54 732.961 157.9 728.388 153.28C723.814 148.66 720.268 143.177 717.748 136.83C715.274 130.483 714.038 123.6 714.038 116.18C714.038 108.76 715.274 101.9 717.748 95.6C720.268 89.2533 723.814 83.77 728.388 79.15C732.961 74.53 738.444 70.9133 744.838 68.3C751.231 65.64 758.324 64.31 766.118 64.31C773.911 64.31 781.004 65.64 787.398 68.3C793.791 70.9133 799.251 74.5533 803.778 79.22C808.351 83.84 811.874 89.3233 814.348 95.67C816.868 101.97 818.128 108.807 818.128 116.18ZM796.638 116.18C796.638 110.86 795.938 106.1 794.538 101.9C793.138 97.6533 791.108 94.06 788.448 91.12C785.834 88.1333 782.638 85.87 778.858 84.33C775.124 82.7433 770.878 81.95 766.118 81.95C761.358 81.95 757.088 82.7433 753.308 84.33C749.528 85.87 746.308 88.1333 743.648 91.12C741.034 94.06 739.028 97.6533 737.628 101.9C736.228 106.1 735.528 110.86 735.528 116.18C735.528 121.547 736.228 126.353 737.628 130.6C739.028 134.8 741.034 138.37 743.648 141.31C746.308 144.25 749.528 146.513 753.308 148.1C757.088 149.64 761.358 150.41 766.118 150.41C770.878 150.41 775.124 149.64 778.858 148.1C782.638 146.513 785.834 144.25 788.448 141.31C791.108 138.37 793.138 134.8 794.538 130.6C795.938 126.353 796.638 121.547 796.638 116.18ZM865.244 113.52C868.651 113.52 871.591 113.1 874.064 112.26C876.538 111.373 878.568 110.183 880.154 108.69C881.741 107.15 882.908 105.353 883.654 103.3C884.401 101.247 884.774 99.0067 884.774 96.58C884.774 91.7733 883.164 88.04 879.944 85.38C876.771 82.72 871.918 81.39 865.384 81.39H854.464V113.52H865.244ZM914.454 167H895.484C891.938 167 889.371 165.647 887.784 162.94L868.464 131.79C867.671 130.577 866.784 129.69 865.804 129.13C864.871 128.57 863.471 128.29 861.604 128.29H854.464V167H833.464V65.43H865.384C872.478 65.43 878.544 66.1767 883.584 67.67C888.624 69.1167 892.754 71.1467 895.974 73.76C899.194 76.3733 901.551 79.5 903.044 83.14C904.538 86.7333 905.284 90.7 905.284 95.04C905.284 98.4 904.794 101.597 903.814 104.63C902.881 107.617 901.504 110.347 899.684 112.82C897.864 115.293 895.624 117.487 892.964 119.4C890.304 121.313 887.271 122.853 883.864 124.02C885.218 124.767 886.478 125.677 887.644 126.75C888.811 127.777 889.861 129.013 890.794 130.46L914.454 167ZM984.652 149.92V167H924.382V65.43H945.382V149.92H984.652ZM1088.6 116.18C1088.6 123.6 1087.34 130.437 1084.82 136.69C1082.34 142.897 1078.82 148.24 1074.25 152.72C1069.72 157.2 1064.26 160.7 1057.87 163.22C1051.47 165.74 1044.38 167 1036.59 167H997.527V65.43H1036.59C1044.38 65.43 1051.47 66.69 1057.87 69.21C1064.26 71.73 1069.72 75.2533 1074.25 79.78C1078.82 84.26 1082.34 89.6033 1084.82 95.81C1087.34 102.017 1088.6 108.807 1088.6 116.18ZM1067.04 116.18C1067.04 110.86 1066.34 106.077 1064.94 101.83C1063.54 97.5833 1061.53 93.99 1058.92 91.05C1056.3 88.11 1053.11 85.8467 1049.33 84.26C1045.59 82.6733 1041.35 81.88 1036.59 81.88H1018.67V150.55H1036.59C1041.35 150.55 1045.59 149.78 1049.33 148.24C1053.11 146.653 1056.3 144.39 1058.92 141.45C1061.53 138.463 1063.54 134.847 1064.94 130.6C1066.34 126.353 1067.04 121.547 1067.04 116.18Z" fill="url(#paint0_angular_3_43)"/>
<defs>
<radialGradient id="paint0_angular_3_43" cx="0" cy="0" r="1" gradientUnits="userSpaceOnUse" gradientTransform="translate(1138.06 76.2499) rotate(175.397) scale(1134.01 4322.1)">
<stop stop-color="#00D1FF"/>
<stop offset="1" stop-color="white"/>
</radialGradient>
</defs>
</svg>
